#!OML:ASF F:\VICON\USERDATA\INSTALL\rory3\rory3.ASF
:FULLY-SPECIFIED
:DEGREES
240
root -0.180786 16.2959 -6.14218 167.248 -23.6522 178.953
lowerback 24.0372 -1.77903 -1.56091
upperback 0.515038 -2.70214 3.23339
thorax -12.6918 -1.15828 5.53574
lowerneck -10.0775 -6.31073 -0.897124
upperneck 10.1285 -7.9636 -4.59445
head 4.5273 -4.27906 -1.80762
rclavicle -1.79403e-014 -1.90833e-014
rhumerus 47.8419 -0.672912 -53.4097
rradius 94.5357
rwrist 34.5926
rhand -14.7257 0.601133
rfingers 7.12502
rthumb 11.4293 -29.0673
lclavicle -1.79403e-014 -1.90833e-014
lhumerus 65.7864 -15.1933 72.9434
lradius 70.8154
lwrist 48.5639
lhand -5.36228 50.5809
lfingers 7.12502
lthumb 20.4453 79.5245
rfemur -22.3476 9.60321 15.4218
rtibia 66.056
rfoot -20.5586 -3.70927
rtoes -6.75473
lfemur -14.2053 -1.05169 -25.7839
ltibia 58.5101
lfoot -24.1997 -7.46588
ltoes 2.14738
241
root -0.182535 16.2403 -6.21641 167.54 -24.1725 178.586
lowerback 24.3522 -1.90182 -1.57766
upperback 0.0767195 -2.85125 2.95538
thorax -13.3776 -1.18411 5.32099
lowerneck -9.18098 -6.13662 -1.68406
upperneck 9.01849 -7.77703 -3.32561
head 4.58247 -4.10485 -1.36437
rclavicle -4.34841e-015 -7.95139e-015
rhumerus 47.5885 -0.721453 -52.9683
rradius 94.7332
rwrist 35.2396
rhand -13.5056 -0.805449
rfingers 7.12502
rthumb 12.6057 -30.4051
lclavicle -4.34841e-015 -7.95139e-015
lhumerus 65.8213 -15.3215 73.0097
lradius 71.1095
lwrist 48.3898
lhand -5.42891 50.0792
lfingers 7.12502
lthumb 20.3813 79.0296
rfemur -22.5584 9.09625 14.9757
rtibia 66.7663
rfoot -20.7542 -3.42512
rtoes -6.64512
lfemur -14.3946 -1.28157 -26.1474
ltibia 59.1574
lfoot -24.5572 -7.50475
ltoes 1.96463
242
root -0.169425 16.2011 -6.31618 167.087 -24.2746 178.972
lowerback 23.3368 -1.61847 -1.87288
upperback 0.886 -2.58508 3.37526
thorax -11.867 -1.12796 5.7713
lowerneck -9.91569 -6.36298 -2.39592
upperneck 8.2063 -7.98353 -2.95825
head 4.48423 -4.19471 -1.13817
rclavicle -1.2101e-014 2.22639e-014
rhumerus 48.828 -1.71689 -51.9692
rradius 94.9706
rwrist 35.73
rhand -11.9912 -2.24591
rfingers 7.12502
rthumb 14.0655 -31.7499
lclavicle -1.2101e-014 2.22639e-014
lhumerus 67.6571 -14.8538 72.6276
lradius 70.7393
lwrist 48.6899
lhand -5.49825 48.865
lfingers 7.12502
lthumb 20.3146 77.8226
rfemur -22.1398 9.05194 15.6658
rtibia 67.4526
rfoot -21.0144 -3.71987
rtoes -8.30684
lfemur -14.0987 -1.07273 -25.5017
ltibia 59.8364
lfoot -25.1053 -7.73453
ltoes 0.733848
243
root -0.154264 16.1569 -6.41805 166.721 -24.4506 179.078
lowerback 23.295 -1.55327 -1.95107
upperback 0.909642 -2.52415 3.30312
thorax -11.8233 -1.09803 5.71011
lowerneck -9.34455 -6.46085 -2.53722
upperneck 7.52445 -8.14208 -2.71658
head 4.13877 -4.25265 -0.995251
rclavicle -1.04362e-014 1.59028e-015
rhumerus 48.8856 -1.95414 -51.612
rradius 95.3443
rwrist 36.3171
rhand -10.2235 -3.7063
rfingers 7.12502
rthumb 15.7685 -33.084
lclavicle -1.04362e-014 1.59028e-015
lhumerus 67.867 -14.96 72.6392
lradius 71.5068
lwrist 48.5413
lhand -5.34647 48.7866
lfingers 7.12502
lthumb 20.4605 77.7285
rfemur -21.728 8.854 16.0674
rtibia 68.2408
rfoot -21.344 -3.95941
rtoes -10.1123
lfemur -13.7668 -0.951292 -25.1691
ltibia 60.4748
lfoot -25.6594 -8.0218
ltoes 0.101514
244
root -0.136921 16.1191 -6.51863 166.666 -24.7022 179.006
lowerback 24.1665 -1.61182 -1.68497
upperback 0.0957472 -2.5005 2.83603
thorax -13.2859 -1.02081 5.11039
lowerneck -8.2315 -6.61975 -2.69377
upperneck 7.37856 -8.41651 -2.28313
head 3.89281 -4.36697 -0.789752
rclavicle -3.47376e-014 1.51076e-014
rhumerus 47.6128 -1.73095 -51.5504
rradius 95.8262
rwrist 36.8941
rhand -8.41196 -5.11394
rfingers 7.12502
rthumb 17.5124 -34.3452
lclavicle -3.47376e-014 1.51076e-014
lhumerus 67.4509 -15.6106 71.8574
lradius 71.334
lwrist 49.0021
lhand -5.50152 47.9602
lfingers 7.12502
lthumb 20.3115 76.9181
rfemur -21.6326 8.50883 16.2516
rtibia 68.9985
rfoot -21.6826 -4.2524
rtoes -10.5713
lfemur -13.7271 -0.852605 -25.0095
ltibia 61.0948
lfoot -26.0366 -8.34032
ltoes -0.237023
245
root -0.126402 16.0911 -6.60242 166.738 -25.0716 178.901
lowerback 23.5869 -1.54375 -2.21427
upperback 0.202861 -2.54233 2.92013
thorax -12.8062 -1.02156 5.48371
lowerneck -7.5513 -6.76526 -3.1078
upperneck 6.29232 -8.62184 -1.97516
head 3.41351 -4.44928 -0.569259
rclavicle 6.7388e-014 -3.33958e-014
rhumerus 47.8934 -1.9325 -50.9015
rradius 96.3534
rwrist 37.0379
rhand -6.5021 -6.60597
rfingers 7.12502
rthumb 19.3496 -35.6633
lclavicle 6.7388e-014 -3.33958e-014
lhumerus 67.9341 -15.3331 71.7018
lradius 71.7662
lwrist 49.0472
lhand -5.68088 47.596
lfingers 7.12502
lthumb 20.1391 76.5722
rfemur -21.6025 7.99532 16.3122
rtibia 69.5339
rfoot -22.0122 -4.64852
rtoes -11.0972
lfemur -13.8833 -0.872847 -24.9757
ltibia 61.7727
lfoot -26.2946 -8.5476
ltoes -0.722434
